<svg version="1.1" id="Layer_1" xmlns="http://www.w3.org/2000/svg" xmlns:xlink="http://www.w3.org/1999/xlink" x="0px" y="0px"
	 width="100%" viewBox="0 0 1200 1637" enable-background="new 0 0 1200 1637" xml:space="preserve">
<path fill="#000000" opacity="1.000000" stroke="none" 
	d="
M531.000000,1638.000000 
	C354.000031,1638.000000 177.500061,1638.000000 1.000071,1638.000000 
	C1.000047,1092.333496 1.000047,546.666931 1.000024,1.000291 
	C400.999786,1.000194 800.999573,1.000194 1200.999512,1.000097 
	C1200.999756,546.666382 1200.999756,1092.332764 1200.999878,1637.999512 
	C977.833313,1638.000000 754.666687,1638.000000 531.000000,1638.000000 
M762.980408,1454.983887 
	C762.980408,1454.983887 762.972046,1455.065308 763.614136,1454.997437 
	C764.092896,1454.664307 764.571594,1454.331177 764.983765,1453.986694 
	C764.983765,1453.986694 764.977661,1454.053955 765.618713,1453.996826 
	C766.093018,1453.663452 766.567261,1453.329956 766.990112,1452.972534 
	C766.990112,1452.972534 766.982910,1453.028442 767.752686,1453.003174 
	C769.133545,1452.541626 770.585754,1452.227173 771.884888,1451.597168 
	C805.795471,1435.148560 839.061157,1417.521973 869.377380,1394.957275 
	C883.552307,1384.406738 897.657593,1373.577393 910.549622,1361.540894 
	C923.212341,1349.718628 934.630615,1336.495117 945.998596,1323.369873 
	C963.986145,1302.601929 975.996094,1278.132202 986.765747,1253.186035 
	C995.882141,1232.069214 1003.264587,1210.178711 1007.589722,1187.531372 
	C1011.083496,1169.237061 1013.389587,1150.708252 1015.922302,1132.242310 
	C1016.772766,1126.041748 1016.955994,1119.715942 1016.997803,1113.444458 
	C1017.109192,1096.739624 1017.447083,1080.014282 1016.778137,1063.333862 
	C1016.332458,1052.219727 1014.619568,1041.121216 1012.912537,1030.102661 
	C1011.215027,1019.145935 1010.208374,1007.788635 1006.447266,997.503601 
	C997.380859,972.710815 987.121033,948.341492 976.886719,923.992859 
	C968.413452,903.833801 958.849243,884.128906 950.550781,863.901855 
	C936.438721,829.504395 924.156250,794.485962 915.512024,758.217224 
	C909.307068,732.183105 905.080933,705.878540 903.179321,679.256226 
	C902.181824,665.291565 902.610657,651.183350 903.111206,637.165527 
	C903.569214,624.338989 904.400085,611.466003 906.138489,598.760132 
	C908.261353,583.244751 910.744202,567.698792 914.425293,552.493835 
	C921.114441,524.863464 930.951172,498.251373 942.888733,472.423157 
	C954.507935,447.283661 968.019287,423.146759 983.576294,400.319336 
	C996.271667,381.690948 1010.221375,363.863434 1024.406982,346.321350 
	C1036.310303,331.601746 1049.227783,317.689484 1061.953979,303.653564 
	C1067.990479,296.995667 1074.640991,290.895569 1080.978516,284.508240 
	C1081.788574,283.691833 1082.387817,282.666260 1083.084717,281.737579 
	C1017.701050,313.574341 958.661438,354.390533 905.883545,403.844238 
	C822.472107,482.002045 760.788940,575.306824 716.481323,681.333008 
	C714.765320,676.688843 713.158264,672.940430 711.981689,669.061462 
	C701.199890,633.514954 690.008118,598.082458 679.932922,562.335693 
	C673.129761,538.197998 667.376099,513.725647 662.182434,489.185089 
	C657.687500,467.946259 654.501770,446.423523 651.004028,424.982758 
	C648.449036,409.320679 646.025635,393.624817 644.100952,377.875916 
	C642.347168,363.525665 641.123901,349.099701 640.074219,334.677460 
	C639.102661,321.328247 638.157776,307.941437 638.114990,294.568237 
	C638.040405,271.300293 638.669128,248.030121 639.004944,224.760895 
	C639.012146,224.261398 639.017517,223.759781 639.065979,223.263260 
	C640.374023,209.854324 641.563416,196.432175 643.044495,183.042328 
	C644.016174,174.258560 645.297241,165.504013 646.648926,156.768753 
	C647.897827,148.697830 649.425232,140.669983 651.048950,131.368454 
	C647.941345,134.899551 645.269836,137.211441 643.489014,140.076843 
	C632.548462,157.680191 621.160706,175.052780 611.200317,193.203781 
	C602.642578,208.798615 595.036743,225.024033 588.351624,241.514511 
	C576.350769,271.117371 564.569946,300.857117 554.163147,331.045074 
	C543.767517,361.200806 534.872803,391.889008 525.876221,422.507202 
	C518.810181,446.555389 512.221863,470.759277 506.089722,495.062683 
	C498.402832,525.527771 491.277252,556.136841 484.148560,586.739502 
	C480.186401,603.748596 476.502899,620.829285 473.064392,637.952087 
	C467.827667,664.029358 462.846893,690.158630 457.881042,716.289368 
	C453.828003,737.616760 449.903503,758.969055 446.024017,780.328857 
	C443.866394,792.208374 441.917511,804.125732 439.642578,817.377502 
	C434.014221,802.510376 429.104095,788.880981 423.717072,775.442749 
	C411.031586,743.798218 398.452179,712.104065 385.202881,680.694519 
	C372.199463,649.867859 358.698090,619.242371 344.870239,588.776001 
	C337.636414,572.838013 329.447083,557.318298 321.304138,541.811890 
	C310.045685,520.372620 298.901642,498.849091 286.826843,477.869110 
	C274.125763,455.800995 260.679291,434.143890 246.999313,412.663361 
	C237.369858,397.543030 226.927002,382.932648 216.606079,368.264343 
	C211.688141,361.274902 206.208313,354.680817 200.379471,347.125305 
	C201.012054,353.415344 201.427124,358.575378 202.065857,363.707642 
	C204.333069,381.924530 206.896759,400.107544 208.915375,418.351288 
	C210.309494,430.950989 211.221329,443.616669 211.931763,456.276276 
	C212.840546,472.469940 213.714478,488.682922 213.890503,504.895355 
	C214.061600,520.655579 213.476028,536.430359 212.954391,552.189819 
	C212.500519,565.902588 211.922791,579.620850 210.939987,593.303711 
	C209.915924,607.561157 208.599136,621.809326 206.935059,636.005859 
	C205.278473,650.138428 203.452682,664.277100 200.948074,678.278442 
	C196.866989,701.092712 193.303909,724.090637 187.497391,746.486023 
	C176.259811,789.828857 163.865173,832.878906 151.471878,875.912598 
	C141.224869,911.493652 130.815887,947.012085 125.983398,983.843262 
	C124.040764,998.649109 122.045204,1013.492676 121.196213,1028.383057 
	C120.547279,1039.764404 121.292320,1051.272583 122.094894,1062.676758 
	C122.993355,1075.443359 124.458008,1088.180420 126.028511,1100.886841 
	C128.862213,1123.813477 135.080338,1146.015381 142.527466,1167.743164 
	C153.452026,1199.616211 166.760361,1230.570435 183.508286,1259.883789 
	C196.388000,1282.426880 209.707230,1304.721802 223.043015,1327.000122 
	C232.883209,1343.439087 245.872269,1357.102417 261.121674,1368.648926 
	C273.415009,1377.957031 286.308838,1386.343018 300.755096,1391.861694 
	C314.893005,1397.262695 329.035553,1402.944580 343.627319,1406.791382 
	C362.524323,1411.772827 381.819489,1415.314453 401.037201,1418.983765 
	C413.880951,1421.436157 426.891022,1423.014160 439.821686,1425.015625 
	C450.165009,1426.616821 460.484955,1428.376953 470.844360,1429.864136 
	C481.555847,1431.401733 492.302338,1432.695190 503.006226,1434.008911 
	C503.006226,1434.008911 502.916534,1434.029663 503.267731,1434.724365 
	C504.794373,1434.762451 506.321014,1434.800415 508.613556,1435.121216 
	C510.189209,1435.448853 511.786102,1435.697632 513.337402,1436.115601 
	C550.559387,1446.140503 588.391113,1453.964600 625.160583,1467.635742 
	C632.461609,1471.086060 639.762573,1474.536377 647.064514,1477.924561 
	C647.064514,1477.924561 647.003113,1477.934570 647.188965,1478.565552 
	C647.598206,1478.653442 648.007507,1478.741455 648.864319,1479.328857 
	C648.979980,1479.803833 648.932922,1480.479858 649.235107,1480.724487 
	C656.805786,1486.853027 664.368225,1492.994385 672.073486,1498.950439 
	C672.988892,1499.657837 675.083740,1499.916260 676.016663,1499.356812 
	C684.998352,1493.970215 693.848145,1488.363770 703.430725,1482.965576 
	C703.966370,1482.642090 704.502014,1482.318604 704.979065,1481.979492 
	C704.979065,1481.979492 704.975220,1482.040161 705.756165,1482.005127 
	C717.545044,1476.813110 729.391724,1471.747192 741.100769,1466.380981 
	C747.823547,1463.299805 754.323120,1459.731567 761.524353,1456.065063 
	C762.036865,1455.707275 762.549377,1455.349487 762.980408,1454.983887 
z"/>
<path fill="#E73900" opacity="1.000000" stroke="none" 
	d="
M503.033569,1434.095459 
	C492.302338,1432.695190 481.555847,1431.401733 470.844360,1429.864136 
	C460.484955,1428.376953 450.165009,1426.616821 439.821686,1425.015625 
	C426.891022,1423.014160 413.880951,1421.436157 401.037201,1418.983765 
	C381.819489,1415.314453 362.524323,1411.772827 343.627319,1406.791382 
	C329.035553,1402.944580 314.893005,1397.262695 300.755096,1391.861694 
	C286.308838,1386.343018 273.415009,1377.957031 261.121674,1368.648926 
	C245.872269,1357.102417 232.883209,1343.439087 223.043015,1327.000122 
	C209.707230,1304.721802 196.388000,1282.426880 183.508286,1259.883789 
	C166.760361,1230.570435 153.452026,1199.616211 142.527466,1167.743164 
	C135.080338,1146.015381 128.862213,1123.813477 126.028511,1100.886841 
	C124.458008,1088.180420 122.993355,1075.443359 122.094894,1062.676758 
	C121.292320,1051.272583 120.547279,1039.764404 121.196213,1028.383057 
	C122.045204,1013.492676 124.040764,998.649109 125.983398,983.843262 
	C130.815887,947.012085 141.224869,911.493652 151.471878,875.912598 
	C163.865173,832.878906 176.259811,789.828857 187.497391,746.486023 
	C193.303909,724.090637 196.866989,701.092712 200.948074,678.278442 
	C203.452682,664.277100 205.278473,650.138428 206.935059,636.005859 
	C208.599136,621.809326 209.915924,607.561157 210.939987,593.303711 
	C211.922791,579.620850 212.500519,565.902588 212.954391,552.189819 
	C213.476028,536.430359 214.061600,520.655579 213.890503,504.895355 
	C213.714478,488.682922 212.840546,472.469940 211.931763,456.276276 
	C211.221329,443.616669 210.309494,430.950989 208.915375,418.351288 
	C206.896759,400.107544 204.333069,381.924530 202.065857,363.707642 
	C201.427124,358.575378 201.012054,353.415344 200.379471,347.125305 
	C206.208313,354.680817 211.688141,361.274902 216.606079,368.264343 
	C226.927002,382.932648 237.369858,397.543030 246.999313,412.663361 
	C260.679291,434.143890 274.125763,455.800995 286.826843,477.869110 
	C298.901642,498.849091 310.045685,520.372620 321.304138,541.811890 
	C329.447083,557.318298 337.636414,572.838013 344.870239,588.776001 
	C358.698090,619.242371 372.199463,649.867859 385.202881,680.694519 
	C398.452179,712.104065 411.031586,743.798218 423.717072,775.442749 
	C429.104095,788.880981 434.014221,802.510376 439.642578,817.377502 
	C441.917511,804.125732 443.866394,792.208374 446.024017,780.328857 
	C449.903503,758.969055 453.828003,737.616760 457.881042,716.289368 
	C462.846893,690.158630 467.827667,664.029358 473.064392,637.952087 
	C476.502899,620.829285 480.186401,603.748596 484.148560,586.739502 
	C491.277252,556.136841 498.402832,525.527771 506.089722,495.062683 
	C512.221863,470.759277 518.810181,446.555389 525.876221,422.507202 
	C534.872803,391.889008 543.767517,361.200806 554.163147,331.045074 
	C564.569946,300.857117 576.350769,271.117371 588.351624,241.514511 
	C595.036743,225.024033 602.642578,208.798615 611.200317,193.203781 
	C621.160706,175.052780 632.548462,157.680191 643.489014,140.076843 
	C645.269836,137.211441 647.941345,134.899551 651.048950,131.368454 
	C649.425232,140.669983 647.897827,148.697830 646.648926,156.768753 
	C645.297241,165.504013 644.016174,174.258560 643.044495,183.042328 
	C641.563416,196.432175 640.374023,209.854324 639.065979,223.263260 
	C639.017517,223.759781 639.012146,224.261398 639.004944,224.760895 
	C638.669128,248.030121 638.040405,271.300293 638.114990,294.568237 
	C638.157776,307.941437 639.102661,321.328247 640.074219,334.677460 
	C641.123901,349.099701 642.347168,363.525665 644.100952,377.875916 
	C646.025635,393.624817 648.449036,409.320679 651.004028,424.982758 
	C654.501770,446.423523 657.687500,467.946259 662.182434,489.185089 
	C667.376099,513.725647 673.129761,538.197998 679.932922,562.335693 
	C690.008118,598.082458 701.199890,633.514954 711.981689,669.061462 
	C713.158264,672.940430 714.765320,676.688843 716.481323,681.333008 
	C760.788940,575.306824 822.472107,482.002045 905.883545,403.844238 
	C958.661438,354.390533 1017.701050,313.574341 1083.084717,281.737579 
	C1082.387817,282.666260 1081.788574,283.691833 1080.978516,284.508240 
	C1074.640991,290.895569 1067.990479,296.995667 1061.953979,303.653564 
	C1049.227783,317.689484 1036.310303,331.601746 1024.406982,346.321350 
	C1010.221375,363.863434 996.271667,381.690948 983.576294,400.319336 
	C968.019287,423.146759 954.507935,447.283661 942.888733,472.423157 
	C930.951172,498.251373 921.114441,524.863464 914.425293,552.493835 
	C910.744202,567.698792 908.261353,583.244751 906.138489,598.760132 
	C904.400085,611.466003 903.569214,624.338989 903.111206,637.165527 
	C902.610657,651.183350 902.181824,665.291565 903.179321,679.256226 
	C905.080933,705.878540 909.307068,732.183105 915.512024,758.217224 
	C924.156250,794.485962 936.438721,829.504395 950.550781,863.901855 
	C958.849243,884.128906 968.413452,903.833801 976.886719,923.992859 
	C987.121033,948.341492 997.380859,972.710815 1006.447266,997.503601 
	C1010.208374,1007.788635 1011.215027,1019.145935 1012.912537,1030.102661 
	C1014.619568,1041.121216 1016.332458,1052.219727 1016.778137,1063.333862 
	C1017.447083,1080.014282 1017.109192,1096.739624 1016.997803,1113.444458 
	C1016.955994,1119.715942 1016.772766,1126.041748 1015.922302,1132.242310 
	C1013.389587,1150.708252 1011.083496,1169.237061 1007.589722,1187.531372 
	C1003.264587,1210.178711 995.882141,1232.069214 986.765747,1253.186035 
	C975.996094,1278.132202 963.986145,1302.601929 945.998596,1323.369873 
	C934.630615,1336.495117 923.212341,1349.718628 910.549622,1361.540894 
	C897.657593,1373.577393 883.552307,1384.406738 869.377380,1394.957275 
	C839.061157,1417.521973 805.795471,1435.148560 771.884888,1451.597168 
	C770.585754,1452.227173 769.133545,1452.541626 767.496216,1452.698730 
	C768.401672,1451.468506 769.475708,1450.396240 770.738220,1449.637817 
	C813.025391,1424.244751 850.269348,1392.767456 884.391968,1357.228516 
	C912.666931,1327.779907 927.078796,1292.710083 931.196106,1252.619019 
	C933.386414,1231.291504 933.063049,1210.030884 930.873901,1188.807739 
	C928.463989,1165.444702 925.448608,1142.123291 918.068420,1119.670654 
	C910.317993,1096.091553 902.450806,1072.550171 894.470337,1049.047974 
	C872.542236,984.470459 852.469604,919.372681 841.648682,851.857239 
	C837.938477,828.707764 834.939087,805.359192 833.342773,781.983582 
	C832.121887,764.105652 833.204712,746.023621 834.004517,728.065308 
	C835.277649,699.476440 840.072998,671.412842 849.473999,644.329407 
	C853.833374,631.770264 859.312134,619.599670 864.340576,607.149292 
	C864.397766,607.045654 864.249512,606.661865 864.249512,606.661865 
	C864.249512,606.661865 863.841492,606.821106 863.523804,606.942139 
	C852.384949,617.849548 840.655884,627.880737 830.928650,639.576782 
	C809.612366,665.207397 793.590271,694.314209 778.987732,724.160400 
	C749.692688,784.036743 727.239075,846.578613 707.016785,909.977295 
	C705.006714,916.279175 703.001404,922.582703 700.502808,930.427002 
	C699.048035,928.318848 698.371948,927.198547 697.561829,926.185425 
	C674.874146,897.812378 655.430176,867.446533 640.849365,834.080261 
	C610.932007,765.618530 601.181885,692.969421 597.245483,619.314514 
	C595.709839,590.581421 596.491211,561.695312 596.982605,532.891968 
	C597.388123,509.119324 598.547852,485.342072 600.060425,461.610687 
	C601.553406,438.187134 603.907166,414.818390 605.887390,391.425964 
	C606.242310,387.234406 606.617126,383.044586 606.982788,378.853943 
	C606.569824,378.782990 606.156860,378.712036 605.743896,378.641083 
	C586.845398,432.519501 571.122925,487.376892 557.210083,542.723083 
	C543.320190,597.978088 529.856506,653.360352 517.490540,708.972473 
	C505.088959,764.744934 493.656372,820.752258 482.936768,876.873901 
	C472.257782,932.783203 462.991760,988.962402 452.995422,1045.651245 
	C430.197876,983.753601 402.586884,924.570190 373.747223,865.959534 
	C344.874969,807.282654 315.417938,748.893494 286.217224,690.378235 
	C285.262421,691.521729 285.238434,692.316406 285.345001,693.093201 
	C288.308990,714.696899 291.729706,736.249023 294.160034,757.912292 
	C298.055176,792.632202 297.422028,827.426147 293.720856,862.130676 
	C288.832275,907.969421 276.736084,952.062439 260.967804,995.261230 
	C250.058701,1025.147827 238.821350,1054.942505 229.000015,1085.190430 
	C218.998169,1115.994385 215.692734,1147.656738 221.862930,1179.889526 
	C228.020920,1212.058838 242.179886,1240.739136 259.949280,1267.840210 
	C278.559906,1296.224121 300.878418,1321.582275 323.608887,1346.698486 
	C344.473907,1369.753296 368.987885,1387.188721 397.226929,1399.756470 
	C429.342987,1414.049805 463.091797,1423.231445 497.028229,1431.853516 
	C499.086975,1432.376587 501.034363,1433.337891 503.033569,1434.095459 
z"/>
<path fill="#E78C00" opacity="1.000000" stroke="none" 
	d="
M864.283447,607.252991 
	C859.312134,619.599670 853.833374,631.770264 849.473999,644.329407 
	C840.072998,671.412842 835.277649,699.476440 834.004517,728.065308 
	C833.204712,746.023621 832.121887,764.105652 833.342773,781.983582 
	C834.939087,805.359192 837.938477,828.707764 841.648682,851.857239 
	C852.469604,919.372681 872.542236,984.470459 894.470337,1049.047974 
	C902.450806,1072.550171 910.317993,1096.091553 918.068420,1119.670654 
	C925.448608,1142.123291 928.463989,1165.444702 930.873901,1188.807739 
	C933.063049,1210.030884 933.386414,1231.291504 931.196106,1252.619019 
	C927.078796,1292.710083 912.666931,1327.779907 884.391968,1357.228516 
	C850.269348,1392.767456 813.025391,1424.244751 770.738220,1449.637817 
	C769.475708,1450.396240 768.401672,1451.468506 767.111328,1452.711426 
	C766.982910,1453.028442 766.990112,1452.972534 766.707947,1452.990967 
	C765.943054,1453.357544 765.460388,1453.705688 764.977661,1454.053955 
	C764.977661,1454.053955 764.983765,1453.986694 764.711670,1454.017578 
	C763.950378,1454.387329 763.461182,1454.726318 762.972046,1455.065308 
	C762.972046,1455.065308 762.980408,1454.983887 762.696899,1455.061035 
	C761.916687,1455.553101 761.419983,1455.967896 760.923340,1456.382812 
	C754.323120,1459.731567 747.823547,1463.299805 741.100769,1466.380981 
	C729.391724,1471.747192 717.545044,1476.813110 705.492798,1481.704590 
	C707.069519,1479.995972 708.819885,1478.447876 710.763428,1477.200806 
	C736.238586,1460.857300 760.356018,1442.900879 779.970642,1419.521240 
	C795.910950,1400.521118 812.420471,1381.970337 827.718811,1362.468262 
	C841.320374,1345.129150 852.531433,1326.176636 859.532959,1305.023682 
	C863.286438,1293.683594 864.766296,1282.135132 861.128662,1270.638672 
	C854.754272,1250.492554 848.461121,1230.282227 841.005554,1210.524658 
	C824.249084,1166.119263 805.720581,1122.362183 792.744568,1076.600586 
	C783.718201,1044.767822 776.601440,1012.605896 778.043457,979.212036 
	C779.026917,956.436707 784.533508,935.098938 799.329712,916.984985 
	C800.039673,916.115723 800.425476,914.981567 800.999756,913.974121 
	C801.037354,913.977417 801.020691,914.032043 800.661621,914.074829 
	C786.488831,919.672791 776.624939,930.011658 767.792175,941.423706 
	C752.151367,961.631775 741.203796,984.475464 731.506042,1007.927612 
	C713.318970,1051.909302 700.164429,1097.527588 687.942627,1143.437378 
	C687.448792,1145.292236 686.842773,1147.117310 685.921936,1150.175415 
	C684.285156,1147.618652 683.217773,1146.200317 682.407166,1144.647949 
	C668.451477,1117.920776 653.864502,1091.497803 640.737000,1064.368774 
	C614.980530,1011.141235 593.554077,956.264587 581.467957,898.120972 
	C574.655090,865.345398 571.074463,832.336365 574.989380,798.858337 
	C575.714172,792.659790 576.724609,786.494629 577.603210,780.314087 
	C577.172180,780.100830 576.741211,779.887573 576.310242,779.674316 
	C573.465027,784.229126 570.401855,788.663696 567.811401,793.359131 
	C554.724243,817.080688 547.246033,842.829346 541.040039,868.980591 
	C532.412292,905.336426 526.751709,942.205261 522.885376,979.345947 
	C520.095093,1006.149841 517.116821,1032.951538 515.200073,1059.823853 
	C513.424805,1084.712036 512.973694,1109.693848 511.881775,1134.631958 
	C511.591125,1141.269653 511.088623,1147.898071 510.694092,1154.355469 
	C500.288086,1141.491943 490.532806,1128.621338 479.925873,1116.495728 
	C459.967834,1093.680176 439.024445,1071.714355 419.392487,1048.628418 
	C391.987915,1016.402344 370.165131,980.663879 355.678802,940.718384 
	C352.483185,931.906555 349.635590,922.968567 346.627747,914.088684 
	C345.688477,920.303101 345.326874,926.422791 345.009552,932.544861 
	C344.562134,941.177124 344.503113,949.846191 343.654816,958.437988 
	C340.637756,988.996643 334.623413,1019.028320 327.557434,1048.887939 
	C319.162170,1084.364990 309.069733,1119.487427 305.403809,1155.966309 
	C302.804596,1181.830566 304.243713,1207.350098 312.604370,1231.999146 
	C330.602600,1285.061646 365.555908,1325.650024 409.697571,1358.453857 
	C440.330353,1381.218628 475.535736,1396.177490 510.151733,1411.865723 
	C546.111755,1428.162964 582.120850,1444.352295 618.064209,1460.686157 
	C621.495972,1462.245728 624.614075,1464.495728 627.593384,1466.560059 
	C626.467712,1466.789062 625.626526,1466.883423 624.785339,1466.977783 
	C588.391113,1453.964600 550.559387,1446.140503 513.337402,1436.115601 
	C511.786102,1435.697632 510.189209,1435.448853 507.913452,1434.823242 
	C505.781097,1434.360107 504.348816,1434.194824 502.916534,1434.029541 
	C502.916534,1434.029663 503.006226,1434.008911 503.019897,1434.052124 
	C501.034363,1433.337891 499.086975,1432.376587 497.028229,1431.853516 
	C463.091797,1423.231445 429.342987,1414.049805 397.226929,1399.756470 
	C368.987885,1387.188721 344.473907,1369.753296 323.608887,1346.698486 
	C300.878418,1321.582275 278.559906,1296.224121 259.949280,1267.840210 
	C242.179886,1240.739136 228.020920,1212.058838 221.862930,1179.889526 
	C215.692734,1147.656738 218.998169,1115.994385 229.000015,1085.190430 
	C238.821350,1054.942505 250.058701,1025.147827 260.967804,995.261230 
	C276.736084,952.062439 288.832275,907.969421 293.720856,862.130676 
	C297.422028,827.426147 298.055176,792.632202 294.160034,757.912292 
	C291.729706,736.249023 288.308990,714.696899 285.345001,693.093201 
	C285.238434,692.316406 285.262421,691.521729 286.217224,690.378235 
	C315.417938,748.893494 344.874969,807.282654 373.747223,865.959534 
	C402.586884,924.570190 430.197876,983.753601 452.995422,1045.651245 
	C462.991760,988.962402 472.257782,932.783203 482.936768,876.873901 
	C493.656372,820.752258 505.088959,764.744934 517.490540,708.972473 
	C529.856506,653.360352 543.320190,597.978088 557.210083,542.723083 
	C571.122925,487.376892 586.845398,432.519501 605.743896,378.641083 
	C606.156860,378.712036 606.569824,378.782990 606.982788,378.853943 
	C606.617126,383.044586 606.242310,387.234406 605.887390,391.425964 
	C603.907166,414.818390 601.553406,438.187134 600.060425,461.610687 
	C598.547852,485.342072 597.388123,509.119324 596.982605,532.891968 
	C596.491211,561.695312 595.709839,590.581421 597.245483,619.314514 
	C601.181885,692.969421 610.932007,765.618530 640.849365,834.080261 
	C655.430176,867.446533 674.874146,897.812378 697.561829,926.185425 
	C698.371948,927.198547 699.048035,928.318848 700.502808,930.427002 
	C703.001404,922.582703 705.006714,916.279175 707.016785,909.977295 
	C727.239075,846.578613 749.692688,784.036743 778.987732,724.160400 
	C793.590271,694.314209 809.612366,665.207397 830.928650,639.576782 
	C840.655884,627.880737 852.384949,617.849548 863.634033,607.050354 
	C864.062073,607.037476 864.283447,607.252991 864.283447,607.252991 
z"/>
<path fill="#E7E100" opacity="1.000000" stroke="none" 
	d="
M627.877808,1466.425293 
	C624.614075,1464.495728 621.495972,1462.245728 618.064209,1460.686157 
	C582.120850,1444.352295 546.111755,1428.162964 510.151733,1411.865723 
	C475.535736,1396.177490 440.330353,1381.218628 409.697571,1358.453857 
	C365.555908,1325.650024 330.602600,1285.061646 312.604370,1231.999146 
	C304.243713,1207.350098 302.804596,1181.830566 305.403809,1155.966309 
	C309.069733,1119.487427 319.162170,1084.364990 327.557434,1048.887939 
	C334.623413,1019.028320 340.637756,988.996643 343.654816,958.437988 
	C344.503113,949.846191 344.562134,941.177124 345.009552,932.544861 
	C345.326874,926.422791 345.688477,920.303101 346.627747,914.088684 
	C349.635590,922.968567 352.483185,931.906555 355.678802,940.718384 
	C370.165131,980.663879 391.987915,1016.402344 419.392487,1048.628418 
	C439.024445,1071.714355 459.967834,1093.680176 479.925873,1116.495728 
	C490.532806,1128.621338 500.288086,1141.491943 510.694092,1154.355469 
	C511.088623,1147.898071 511.591125,1141.269653 511.881775,1134.631958 
	C512.973694,1109.693848 513.424805,1084.712036 515.200073,1059.823853 
	C517.116821,1032.951538 520.095093,1006.149841 522.885376,979.345947 
	C526.751709,942.205261 532.412292,905.336426 541.040039,868.980591 
	C547.246033,842.829346 554.724243,817.080688 567.811401,793.359131 
	C570.401855,788.663696 573.465027,784.229126 576.310242,779.674316 
	C576.741211,779.887573 577.172180,780.100830 577.603210,780.314087 
	C576.724609,786.494629 575.714172,792.659790 574.989380,798.858337 
	C571.074463,832.336365 574.655090,865.345398 581.467957,898.120972 
	C593.554077,956.264587 614.980530,1011.141235 640.737000,1064.368774 
	C653.864502,1091.497803 668.451477,1117.920776 682.407166,1144.647949 
	C683.217773,1146.200317 684.285156,1147.618652 685.921936,1150.175415 
	C686.842773,1147.117310 687.448792,1145.292236 687.942627,1143.437378 
	C700.164429,1097.527588 713.318970,1051.909302 731.506042,1007.927612 
	C741.203796,984.475464 752.151367,961.631775 767.792175,941.423706 
	C776.624939,930.011658 786.488831,919.672791 800.647461,914.059204 
	C800.992310,914.000732 800.962280,913.970825 800.962280,913.970825 
	C800.425476,914.981567 800.039673,916.115723 799.329712,916.984985 
	C784.533508,935.098938 779.026917,956.436707 778.043457,979.212036 
	C776.601440,1012.605896 783.718201,1044.767822 792.744568,1076.600586 
	C805.720581,1122.362183 824.249084,1166.119263 841.005554,1210.524658 
	C848.461121,1230.282227 854.754272,1250.492554 861.128662,1270.638672 
	C864.766296,1282.135132 863.286438,1293.683594 859.532959,1305.023682 
	C852.531433,1326.176636 841.320374,1345.129150 827.718811,1362.468262 
	C812.420471,1381.970337 795.910950,1400.521118 779.970642,1419.521240 
	C760.356018,1442.900879 736.238586,1460.857300 710.763428,1477.200806 
	C708.819885,1478.447876 707.069519,1479.995972 705.102295,1481.722168 
	C704.975220,1482.040161 704.979065,1481.979492 704.694702,1481.983398 
	C703.852112,1482.264771 703.293884,1482.542480 702.735718,1482.820190 
	C693.848145,1488.363770 684.998352,1493.970215 676.016663,1499.356812 
	C675.083740,1499.916260 672.988892,1499.657837 672.073486,1498.950439 
	C664.368225,1492.994385 656.805786,1486.853027 649.235107,1480.724487 
	C648.932922,1480.479858 648.979980,1479.803833 648.476440,1478.816895 
	C647.726746,1478.181396 647.364929,1478.057983 647.003113,1477.934570 
	C647.003113,1477.934570 647.064514,1477.924561 647.082642,1477.603638 
	C640.693176,1473.663574 634.285522,1470.044312 627.877808,1466.425293 
M764.835083,1137.717163 
	C745.954407,1152.075195 729.568848,1168.744263 717.492737,1189.321777 
	C706.002319,1208.901245 699.131104,1230.097412 695.848389,1252.506958 
	C692.906372,1272.590332 690.024597,1292.682861 686.970642,1312.749146 
	C685.934998,1319.553955 684.455078,1326.291016 682.990540,1334.053711 
	C635.789124,1273.761597 607.153381,1206.341309 591.204712,1132.914062 
	C579.890259,1182.400146 569.122009,1231.978149 566.799622,1283.340454 
	C525.988525,1253.378174 488.546967,1220.667725 454.076324,1184.527222 
	C419.755280,1148.543701 387.852020,1110.462402 356.170288,1072.068359 
	C355.829193,1073.365234 356.052795,1074.281494 356.288361,1075.194702 
	C360.247284,1090.541504 364.170197,1105.897583 368.176788,1121.231934 
	C373.842773,1142.917358 374.076752,1165.165405 374.907410,1187.328369 
	C375.173645,1194.431885 374.243408,1201.574097 374.022614,1208.703613 
	C373.744202,1217.693848 373.470856,1226.689575 373.493500,1235.682251 
	C373.515717,1244.505859 373.146942,1253.429688 374.295929,1262.131714 
	C377.060974,1283.073364 386.911133,1300.716675 401.308075,1315.978882 
	C414.310394,1329.762695 429.108948,1341.385498 444.867859,1351.756592 
	C505.983337,1391.976562 572.197083,1422.492432 638.385559,1453.036987 
	C650.633789,1458.689209 662.929810,1464.242310 675.296997,1469.626953 
	C676.986572,1470.362549 679.436340,1470.446167 681.169128,1469.820801 
	C699.486816,1463.206787 716.057251,1453.312988 731.778748,1441.987427 
	C753.871216,1426.072266 773.584656,1407.780640 787.219299,1383.821289 
	C793.833435,1372.198608 799.225647,1360.029297 798.967529,1346.245605 
	C798.688232,1331.333862 794.031738,1317.287109 789.781921,1303.214111 
	C783.221863,1281.490967 776.124146,1259.928589 769.706116,1238.164795 
	C763.265381,1216.323486 759.397705,1194.074341 760.009155,1171.123901 
	C760.312683,1159.728271 762.826843,1148.920654 766.557556,1137.950317 
	C766.573486,1137.659180 766.589417,1137.368164 766.605347,1137.077026 
	C766.207397,1137.173950 765.809387,1137.270996 764.835083,1137.717163 
z"/>
<path fill="#E84200" opacity="1.000000" stroke="none" 
	d="
M627.593384,1466.560059 
	C634.285522,1470.044312 640.693176,1473.663574 647.082214,1477.634766 
	C639.762573,1474.536377 632.461609,1471.086060 624.972961,1467.306763 
	C625.626526,1466.883423 626.467712,1466.789062 627.593384,1466.560059 
z"/>
<path fill="#E73900" opacity="1.000000" stroke="none" 
	d="
M503.092133,1434.376953 
	C504.348816,1434.194824 505.781097,1434.360107 507.530518,1434.681885 
	C506.321014,1434.800415 504.794373,1434.762451 503.092133,1434.376953 
z"/>
<path fill="#E73900" opacity="1.000000" stroke="none" 
	d="
M765.298218,1454.025391 
	C765.460388,1453.705688 765.943054,1453.357544 766.733643,1453.002930 
	C766.567261,1453.329956 766.093018,1453.663452 765.298218,1454.025391 
z"/>
<path fill="#E73900" opacity="1.000000" stroke="none" 
	d="
M763.293091,1455.031372 
	C763.461182,1454.726318 763.950378,1454.387329 764.744873,1454.023193 
	C764.571594,1454.331177 764.092896,1454.664307 763.293091,1455.031372 
z"/>
<path fill="#E73900" opacity="1.000000" stroke="none" 
	d="
M761.223877,1456.223877 
	C761.419983,1455.967896 761.916687,1455.553101 762.737610,1455.065063 
	C762.549377,1455.349487 762.036865,1455.707275 761.223877,1456.223877 
z"/>
<path fill="#E78C00" opacity="1.000000" stroke="none" 
	d="
M703.083191,1482.892822 
	C703.293884,1482.542480 703.852112,1482.264771 704.723999,1481.991211 
	C704.502014,1482.318604 703.966370,1482.642090 703.083191,1482.892822 
z"/>
<path fill="#E84200" opacity="1.000000" stroke="none" 
	d="
M647.096069,1478.250000 
	C647.364929,1478.057983 647.726746,1478.181396 648.252686,1478.567139 
	C648.007507,1478.741455 647.598206,1478.653442 647.096069,1478.250000 
z"/>
<path fill="#E78C00" opacity="1.000000" stroke="none" 
	d="
M863.951782,606.929321 
	C863.841492,606.821106 864.249512,606.661865 864.249512,606.661865 
	C864.249512,606.661865 864.397766,607.045654 864.340576,607.149292 
	C864.283447,607.252991 864.062073,607.037476 863.951782,606.929321 
z"/>
<path fill="#E7E100" opacity="1.000000" stroke="none" 
	d="
M801.006470,914.016357 
	C801.020691,914.032043 801.037354,913.977417 800.999817,913.974121 
	C800.962280,913.970825 800.992310,914.000732 801.006470,914.016357 
z"/>
<path fill="#FFFF9E" opacity="1.000000" stroke="none" 
	d="
M766.235535,1138.199219 
	C762.826843,1148.920654 760.312683,1159.728271 760.009155,1171.123901 
	C759.397705,1194.074341 763.265381,1216.323486 769.706116,1238.164795 
	C776.124146,1259.928589 783.221863,1281.490967 789.781921,1303.214111 
	C794.031738,1317.287109 798.688232,1331.333862 798.967529,1346.245605 
	C799.225647,1360.029297 793.833435,1372.198608 787.219299,1383.821289 
	C773.584656,1407.780640 753.871216,1426.072266 731.778748,1441.987427 
	C716.057251,1453.312988 699.486816,1463.206787 681.169128,1469.820801 
	C679.436340,1470.446167 676.986572,1470.362549 675.296997,1469.626953 
	C662.929810,1464.242310 650.633789,1458.689209 638.385559,1453.036987 
	C572.197083,1422.492432 505.983337,1391.976562 444.867859,1351.756592 
	C429.108948,1341.385498 414.310394,1329.762695 401.308075,1315.978882 
	C386.911133,1300.716675 377.060974,1283.073364 374.295929,1262.131714 
	C373.146942,1253.429688 373.515717,1244.505859 373.493500,1235.682251 
	C373.470856,1226.689575 373.744202,1217.693848 374.022614,1208.703613 
	C374.243408,1201.574097 375.173645,1194.431885 374.907410,1187.328369 
	C374.076752,1165.165405 373.842773,1142.917358 368.176788,1121.231934 
	C364.170197,1105.897583 360.247284,1090.541504 356.288361,1075.194702 
	C356.052795,1074.281494 355.829193,1073.365234 356.170288,1072.068359 
	C387.852020,1110.462402 419.755280,1148.543701 454.076324,1184.527222 
	C488.546967,1220.667725 525.988525,1253.378174 566.799622,1283.340454 
	C569.122009,1231.978149 579.890259,1182.400146 591.204712,1132.914062 
	C607.153381,1206.341309 635.789124,1273.761597 682.990540,1334.053711 
	C684.455078,1326.291016 685.934998,1319.553955 686.970642,1312.749146 
	C690.024597,1292.682861 692.906372,1272.590332 695.848389,1252.506958 
	C699.131104,1230.097412 706.002319,1208.901245 717.492737,1189.321777 
	C729.568848,1168.744263 745.954407,1152.075195 765.327637,1137.751953 
	C765.958618,1137.924316 766.097046,1138.061768 766.235535,1138.199219 
z"/>
<path fill="#FFFF9E" opacity="1.000000" stroke="none" 
	d="
M765.615784,1137.577393 
	C765.809387,1137.270996 766.207397,1137.173950 766.605347,1137.077026 
	C766.589417,1137.368164 766.573486,1137.659180 766.396545,1138.074707 
	C766.097046,1138.061768 765.958618,1137.924316 765.615784,1137.577393 
z"/>
</svg>